/* XPM */
static char *ea_txtures64[] = {
/* columns rows colors chars-per-pixel */
"63 64 246 2 ",
"   c #030505",
".  c #040606",
"X  c #040607",
"o  c #050708",
"O  c #050808",
"+  c #050809",
"@  c #060809",
"#  c #060909",
"$  c #06090A",
"%  c #060A0A",
"&  c #070A0A",
"*  c #060A0B",
"=  c #070A0B",
"-  c #070B0B",
";  c #070B0C",
":  c #080B0B",
">  c #080B0C",
",  c #080C0C",
"<  c #080C0D",
"1  c #090C0D",
"2  c #090D0D",
"3  c #0A0D0D",
"4  c #080C0E",
"5  c #090D0E",
"6  c #090D0F",
"7  c #0A0D0E",
"8  c #090E0E",
"9  c #090E0F",
"0  c #0A0E0E",
"q  c #0A0E0F",
"w  c #0B0E0F",
"e  c #0A0F0F",
"r  c #0B0F0F",
"t  c #0A0E10",
"y  c #0A0F10",
"u  c #0B0F10",
"i  c #0B0F11",
"p  c #0C0F10",
"a  c #0B1010",
"s  c #0B1011",
"d  c #0B1112",
"f  c #0C1010",
"g  c #0C1011",
"h  c #0C1111",
"j  c #0D1111",
"k  c #0C1012",
"l  c #0C1112",
"z  c #0D1112",
"x  c #0C1113",
"c  c #0D1113",
"v  c #0C1212",
"b  c #0D1212",
"n  c #0C1213",
"m  c #0D1213",
"M  c #0E1213",
"N  c #0E1313",
"B  c #0F1313",
"V  c #0D1214",
"C  c #0D1314",
"Z  c #0D1315",
"A  c #0E1214",
"S  c #0E1314",
"D  c #0F1314",
"F  c #0E1315",
"G  c #0F1315",
"H  c #0F1414",
"J  c #0E1415",
"K  c #0F1415",
"L  c #0E1416",
"P  c #0F1416",
"I  c #0E1516",
"U  c #0F1516",
"Y  c #0F1517",
"T  c #0F1617",
"R  c #101515",
"E  c #101416",
"W  c #101516",
"Q  c #101517",
"!  c #111517",
"~  c #111616",
"^  c #101617",
"/  c #111617",
"(  c #101618",
")  c #111618",
"_  c #101718",
"`  c #111718",
"'  c #111719",
"]  c #121718",
"[  c #121719",
"{  c #111819",
"}  c #121818",
"|  c #121819",
" . c #131819",
".. c #131919",
"X. c #12181A",
"o. c #13181A",
"O. c #12191A",
"+. c #13191A",
"@. c #12191B",
"#. c #13191B",
"$. c #121A1B",
"%. c #131A1B",
"&. c #14191A",
"*. c #14191B",
"=. c #141A1B",
"-. c #151A1B",
";. c #131A1C",
":. c #131B1C",
">. c #131B1D",
",. c #141A1C",
"<. c #141B1C",
"1. c #151B1C",
"2. c #141B1D",
"3. c #151B1D",
"4. c #141C1D",
"5. c #151C1D",
"6. c #161C1D",
"7. c #141C1E",
"8. c #151C1E",
"9. c #151D1E",
"0. c #151D1F",
"q. c #161C1E",
"w. c #161D1E",
"e. c #171D1E",
"r. c #161D1F",
"t. c #171D1F",
"y. c #151E1F",
"u. c #161E1F",
"i. c #171E1F",
"p. c #181D1F",
"a. c #181E1F",
"s. c #151E20",
"d. c #161E20",
"f. c #171E20",
"g. c #161F20",
"h. c #171F20",
"j. c #161F21",
"k. c #171F21",
"l. c #181E20",
"z. c #181F20",
"x. c #191F20",
"c. c #181F21",
"v. c #162021",
"b. c #172021",
"n. c #172022",
"m. c #172122",
"M. c #182021",
"N. c #192021",
"B. c #182022",
"V. c #192022",
"C. c #182122",
"Z. c #192122",
"A. c #182123",
"S. c #192123",
"D. c #1A2022",
"F. c #1A2123",
"G. c #1B2123",
"H. c #182223",
"J. c #192223",
"K. c #1A2223",
"L. c #1B2223",
"P. c #192224",
"I. c #192324",
"U. c #1A2224",
"Y. c #1B2224",
"T. c #1A2324",
"R. c #1B2324",
"E. c #1A2325",
"W. c #1B2325",
"Q. c #1C2224",
"!. c #1C2324",
"~. c #1A2425",
"^. c #1B2425",
"/. c #1A2426",
"(. c #1B2426",
"). c #1B2526",
"_. c #1B2527",
"`. c #1D2425",
"'. c #1D2426",
"]. c #1C2526",
"[. c #1D2526",
"{. c #1C2527",
"}. c #1D2527",
"|. c #1E2526",
" X c #1E2527",
".X c #1C2627",
"XX c #1E2627",
"oX c #1F2627",
"OX c #1C2628",
"+X c #1D2628",
"@X c #1C2728",
"#X c #1D2728",
"$X c #1C2629",
"%X c #1C2729",
"&X c #1D2729",
"*X c #1E2628",
"=X c #1F2628",
"-X c #1F2728",
";X c #1F2729",
":X c #1D272A",
">X c #1E2829",
",X c #1D282A",
"<X c #1E282A",
"1X c #1E292A",
"2X c #1E282B",
"3X c #1E292B",
"4X c #1F292B",
"5X c #1F2A2B",
"6X c #1F2A2C",
"7X c #1F2B2D",
"8X c #202729",
"9X c #202829",
"0X c #20282A",
"qX c #20292A",
"wX c #21292B",
"eX c #202A2C",
"rX c #202B2C",
"tX c #202B2D",
"yX c #212B2D",
"uX c #222B2C",
"iX c #222B2D",
"pX c #212C2D",
"aX c #202C2E",
"sX c #212C2E",
"dX c #212D2E",
"fX c #222C2E",
"gX c #232C2E",
"hX c #222D2E",
"jX c #232D2E",
"kX c #222D2F",
"lX c #222E2F",
"zX c #242D2F",
"xX c #242E2F",
"cX c #222E30",
"vX c #232E30",
"bX c #232F31",
"nX c #252E30",
"mX c #242F31",
"MX c #252F31",
"NX c #262F31",
"BX c #242F32",
"VX c #263031",
"CX c #243032",
"ZX c #263032",
"AX c #273032",
"SX c #273133",
/* pixels */
"s i g g A g g g A A g A ~ A E E ~ R ~ ~ ~ ~ o./ o.o.o.:.:.o.:.o.:.:.o.o./ / / / ~ ~ ~ J ~ ~ J J J g ~ g E g E g g g i i 4 4 4 ",
"% . . % o % % o o % % % % % % % : : % % % - 4 4 < < 4 4 r r < r r < r < r - - 4 - < % - % % % % % % % : o % % . . % % .   . 4 ",
"> % 4 ; > > : > 4 4 4 i i i i i g 4 g g J J J ~ J J J / / / / / / / / / J H I I H g g g , s s s 4 4 4 4 4 4 > > % > ; % 4 o > ",
"4 4 s 4 p p 4 ~ ] J ] ] ] ] ] o.7./ 7.p.V.V.V.V./.I.|.+X/.!.+X|.I.+X!.I.I.I.V.I.a.7.>.7.J o...o...~ ~ ~ g E E g > 4 4 > > % 4 ",
"4 p ~ ] ....p.p.6.c.c.`.`.*X*X|.+X!.p.wXwXwXuXdXxXxXCXSXSXAXSXxXCXxXxXxXxXdXuXwXwX|.|.!...|.|.|.|.V.V.V.p.p.....] ] ~ J g : 4 ",
"r i J ~ ] o...] ] ] 6.6.c.U.U.c.V.|.|.7.V.V.I.I./.+X>X>X+X+X+X+X0X+X|.+X+X/.I.I.V.V.7.>.I.V.7.7.6.6.......] ] ~ ~ J A J g > g ",
"r 4 r g g A ~ E E E E ] #.#.] ] / / 7./ J ~ o.:.>.7.7.a.7.e.7.e.s.>.>.>.>.>...../ / H ..o.~ / / ~ ~ ~ ~ E R g g s s g 4 4 % g ",
"g 4 ~ ..o.~ 6.p.p.c.U.`.`.|.*X8X|.8XwX|.G.7.|.+XuXuXxXxXxXAXAXSXAXAXuXwX0X+X|.|.7.p.wX|.|.|.|.I.V.G.p.7.6.....o.~ g ~ A 4 > J ",
"g i A J ] ] o.] o.6.6.d.d.c.V.c.n.V./.V.n.n.I./._.>X7X7X>X>XdXdXuX4X+X+X/././.I.V.s.a.7.s.I.I.s.d.c.6.....o.] ] ~ J T A s , A ",
"g A ] J ] ] 7.] ] 6.d.d.V.U.U.U.V././.V.I.s././.>X>X>X>X>XdX6XdXuXuX>X+X/././.I.V.7.s.a.V.I.I.V.c.d.7.7.6.o.o.....J ~ J J 4 J ",
"A s J ] ] ~ o.6.6.d.U.n.U.U.U._././././.|.n./.+X>X,X>X7XdXdXvXdXlX4X4X4X+X/././.V.7.a.V.I.I.I.I.V.V.n.d.7.6.....~ ~ ~ J J 4 J ",
"A s A ~ o.J ..6.6.c.U.U./.U._._.>X>X>X/./.V./.+X_.,X>XdXdXCXCXvXdX4X4X4X,X+X/.+XV.s.V.I.I.I.|.I.U.U.V.d.d.6.7...] ~ o.A A 4 ~ ",
"A g J ] #.] o.7.d.I.I.U._._._.6X7X7X6X_./.n./._.>X>X7XvXdXCXxXvXdX4X4X4X4X+X/./.V.V.n.I.I././.I.U.I.I.n.n.7.7.7.o.J o.J J 4 o.",
"g g ] ] #.] 7.7.n.I.U./._._.6X6X7X7X6X>X>X/._.,X>X6XdXvXdXCXvXvXlXlX4X4X>X+X/./.V.a.I.I.I.I.!.I.U.U.I.I.n.7.7.7.o.o.#.J g s o.",
"A g J o.#.] 7.d.I.U././._.,X6X,X7X7X7X>X>X/.>X>X6X7XdXCXCXCXCXdXCXlXuX4X>X,X/./.n.n.I.V.I.I.I.I./.n.n.I.V.n.n.7.o.o.o.J J r o.",
"A g T ] 6.] 7.n.U.U.U._.2X6X,X6XdX7X7X>X,X/.>X>X7X7XdXdXdXCXCXCXCXCXdX4X4X,X+X/.V.n.I.I.I.I.I.I.I./.I.I.V.V.d.7.7.J o.J V 4 o.",
"A g ] ] #.T 6.d.V./././.>X7X>X6X7X7X6X,X,Xn.,X>X>X7XdXdXCXCXCXCXCXCXdXdX7X>X/.,XI.V.I.I.I.I.I.I./.I.I.I.V.n.s.7.>.~ o.~ J s o.",
"J g J o.6.] 6.d.V.I./.+X>X>X,X>X7X7X6X,X,XI.,X6X>X7X7XdXdXCXCXCXCXCXdX7X7X>X>X,XI.a.I.I.I.I.+X/./.I.I.I.V.V.7.7.../ o.J J 4 o.",
"~ g ~ ] #.T 6.d.n.I./.,X,X>X,X,X>X6X,X,X,XI._.>X>X7X7XdXdXCXCXCXdXdX7X7X>X>X>X+XV.s.I.I.I.I././.I.n.V.I.V.n.p.p.../ o.~ J s o.",
"A g ~ ] 6.] #.6.s.I./././.>X,X_.,X,X2X,X,XI._.,X>X>X7XCXCXCXCXdXlXdX7X7X>X,X/./.I.a.I.I.I.I.+X/.I.V.n.n.V.p.7.7.7.~ o.J H 4 o.",
"A A T ] #.] #.d.n.V./.+X_._.+X,X,X>X>X/./.n._.,X>X6X7XdXdXCXlXdXCXdXdX4X>X/./.+XV.V.I.I./.I.|.I./.I.I.V.s.7.p.>.:./ o.J H r o.",
"A i ] ] #.] 6.d.n.I./.|./././.>X,X,X,X/./.n._.,X>X7X7X7XdXCXCXCXCXdXdX>X,X+X+X/.s.V.I.I./.I.I./.I.I.I.V.a.7.7.7.o.J o.J s s o.",
"A g T ] #.T 6.6.n.V./././././.+X_._./././.n.,X,X>X>X>XdXdXlXlXCXCXdXdX>X+X>X+X+Xa.s.V.I.I./.I.I.I.I.V.s.7.p.7...o.J o.H J 4 _ ",
"A A #.6.#.T #.6.7.V.I./.I././.+X_././.U./.n._./.>X>X7X>XdXdXlXCXCXdX>X>X>X>X+XI.V.s.s.I.I.I.I.I.I.I.n.n.7.7.>...o.J o./ J 4 o.",
"A A ] o.6.J 6.7.7.n.U.U.I.I././././.I.I.I.s.I./.+X4X4X4X4XdXCXdXdX7X4X4X4X>X,X/.s.s.a.I.I.I.I.I.I.n.I.n.p.>.>.:.o.J :./ J r o.",
"A g A J o.J #.6.d.n.U.U./.I.V.I././.I.I.I.s.I.|.+X4X>X,X7XlXdXdXdX4X7X4X>X>X/./.a.7.s.I.I.I.I.I.V.I.V.a.7.7.>.o.o.J I H J r o.",
"A x T T o.T #.#.7.n.n.I.n.n.n.I.I.H.V./.I.s.I.I./.,X+X/.>X7XdX7XdX4X>X>X/.,X/./.a.7.s.V.I.I.I.I.n.n.I.s.a.7.:.:.o.J o.J V r I ",
"A x A ] #.T #.#.7.7.d.n.n.n.H.n.H.I.n.n.V.s.I.I././././.>X4X4X>X4X4X>X>X,X/./.n.7.7.7.a.V.V.V.n.n.I.V.V.p.>.:.:./ J / J V r o.",
"A i J ] ] J o.o.6.7.7.d.V.V.n././.I.V.s.V.>.n.I./././.+X,X>X7X7X7X6X>X>X,X/./.n.>.7.p.7.s.s.n.V.I.I.n.s.7.o.o.I o.J _ Z V , o.",
"A s J ] o.J ] o.6.7.7.d.n.n.n././.n.V.s.7.o.V.I.I./././.,X>X>X>X>X7X>X>X/./.I.n.>.~ 7.p.s.n.s.s.n.s.a.s.:.o.o.o.J J _ Z V r o.",
"A g A J ] A ] o.o.#.7.7.d.n.n.n.n.n.s.>.:.7.s.I.I.I.+X/./.,X,X,X>X6X>X/././.n.s.>.e...7.7.s.s.s.s.s.7.7.:.o.o.o.o.J _ Z V r _ ",
"g i J J ] g ] o.o.7.n.n.V.n.n.V.n.n.n.7.7.>.s.V.H.I.+X+X,X/./.,X,X,X+X/././.n.7.>.>.>.V.V.I.I.a.V.a.a.s.:.:.I / / J J V V r o.",
"H s J J / J o.o...7.V.V.V.V.V.G.V.V.V.V.V.o.7.s.H././.,X,X/././._.,X/./././.n.7.:.I I.n.V.V.G.V.a.a.V.7.7.o._ o.o.J I J V r o.",
"g g J I I J o.o.o.o.o.....7.p.>.7.7.>.>.n.7.7.n.I.I././././._./././././.H.n.n.7.:.s.7.:.7.7.7.7.>...7...o._ J _ o.J J V V 4 / ",
"H s J / o.g I o.o.o...7.7.7.7.7.7.p.>.:.>.o.7.s.n.I.I./././.,X,X_._./././.I.n.7.o._ o.:.7.7.7.7.>.7.>...o.o._ _ J H J J H r o.",
"s s J J I g J / o.o...7.7.p.p.7.p.7.7.o.:.o.:.7.n.n.I.I.H././././././.I.n.V.7.7.:._ o.:.>.7.7.7...7.7...o.o.J J J J J J s 4 I ",
"g s J J J s / o.o.o.7.7.7.7.7.7.>.p.....:._ :.7.7.n.I.n.H.I./.I.I.I.V.V.n.n.7.7.o.o.o.:.>.p.7.>.7...7.o.o.o._ J H J J V V 4 o.",
"g r V H J s J o.o.o.o.7.7.7.7.7.>.7.7...o.o.o.7.7.n.n.n.H.I.H.H.I.n.n.n.s.7.7.7.o./ o.:.>.7.7.>...7.o.7.:.o.J J V J J H s r o.",
"s r V V J s J _ o.o.o.7.:.:.:.:.7.7.7.o.o./ o.>.7.n.n.n.H.H.n.n.n.n.V.7.s.s.7...o.o.o.....7.7.>.7.o.7.7.o._ J J V s J s s 4 I ",
"r r s V s s J _ 7.:.o.o.:.:.o.:.o.7.:.o.o./ o.>.s.s.s.n.n.n.n.n.n.s.7.7.a.7.7.o./ o./ ....>.7.:...6.o.o._ _ J J V s H s r - / ",
"r r V J H s J _ :.o.o.$.$.:.o.:.o.7.:.o.:.I :.:.7.7.s.n.n.n.n.n.n.7.7.7.7.7.7.o./ I o.o.o.:.:.:.:.:.o.:.o.I I J V V J V V , I ",
"s 4 V V V r J _ _ o.o.$._ $.:._ o.o.7.:.o.J o.:.7.7.7.s.7.7.7.n.7.7.7.7.7.:.:.o.o.I / I / :.:.:.o.7._ o.o._ I J V s V V s 4 o.",
"s r s Z H s J I I o.o._ :._ :.o.o.o.7.:.:.I I :.7.:.:.7.7.7.7.s.p.7.7.7.7.:.o.o./ / I o.:.o.o.:._ :.o._ I _ J J V s J V s r / ",
"r r H V V s J I J o._ o._ :._ o.o.o.o.o.o.J I o._ o.:.7.7.o.7.7.7.7.>.7.:.:._ o.I I / I I o._ _ o._ o.o.I I J J V r H V V 4 o.",
"s 4 V V s r J J / o.I o.o.o.o.o._ o.o.:.o.H I o.o.7.7.:.:.:.7.7.7.>.7.o.o.o.I o.J I I / o.o.o.o._ o._ I I _ J J V r V V r r I ",
"s 4 s V s s J J I / o./ I o.I I _ _ _ _ I H I I o.:.:.:.7.7.s.s.p.7.7.:.o.o.o._ J J / / I o._ :.o._ o.I _ _ I J V r V s s , I ",
"r r s V V r J H I o.I o.o._ I o.I o._ o.I H I o._ :.:.7.o.7.7.7.7.7.....o.o.o.o.J H J / o._ :._ I o._ I _ I J Z V 4 H s s 4 / ",
"r 4 V V V s Z V I I I I I _ I I _ I _ o.I H J I o._ o.:.o.:.:.7.7.>.....o.I J I H H J / o.o.o._ o.I o.I I J Z Z V s s H s 4 / ",
"s 4 V V V r V V I I I I I I I I _ o._ _ _ V Z J I o.o.:.7.:.:.7.7.:.:.:.o.o.I I V V J J o.o._ o.J I I I Z Z Z Z V 4 V 4 V 4 I ",
"r r s V V r V V J I I J I I I o._ _ o._ I V Z J I o.o._ _ :.:.:.:.:.I I I I I J s V J J J J J J I o.o.I Z Z Z Z V 4 V i 4 4 I ",
"s 4 V V V r V V V I I Z J I I _ _ o.o._ I V H J J o._ o.o.o.o.o.o.o.o.I I I J J V V Z Z J J J J I I J J V Z V V V 4 V V s , / ",
"r , s V V 4 V V Z I J H J I I _ I _ _ J _ V V J J I I _ o._ _ o.o.I o.I I J Z Z s s V J J J J J J J J J Z V V V V 4 V i r r I ",
"r 4 s V s 4 V V Z J J V J I I I J J J J J s V Z J J I o.I o.o.I I I I I Z Z V Z V H V V H V Z Z J J V Z V V V s s 4 s s r , I ",
"r 4 r s V 4 s V V V Z V V J I I J J J J J s V Z J J J I _ I I / I J I I Z V V Z s s s V H J V Z J J V V V V V V s , s r , , J ",
"r - s s s r V V V Z H V V V J H J J V Z J r H V J H J J I / J J V V J J Z V V V r s s s g J J J H V Z V V V V V s 4 r r r - J ",
"r - 4 r 4 , r r r V s s V s s V s s s r s , s g V V V H J J J J J H V H V s s s , r , r r s g g s r s s r 4 4 4 , - , , , - J ",
"4 4 p r g g H g V J J J J I J I / o.J s H / J o.o.I o./ :.:.7.:.:.:./ / I I I I J ~ g g ~ J J g g H H g g g s s s s s 4 4 - J ",
"p < 4 4 4 4 g p r s r r s s s H g s 4 s H s J g V V H V H V H V V V V V H s s s s s g g r s g g g 4 4 4 s 4 4 4 4 , 4 , 4 - V ",
"4 : 4 < 4 4 : 4 4 4 r r r r r r r < 4 g r s s s s V H V s H H H H H s H p 4 r r 4 4 4 4 % 4 4 p 4 4 4 4 4 < - - - , , , - % V ",
"4 < g 4 r g < r s V r H H g H s ~ r g g g H H H H J / o./ / o.o.I / / / ~ H H r p p g g 4 g g g g g p r 4 4 4 4 , r s 4 , - V ",
"r : : 4 4 4 4 r g g H J H H J H H g g H H J / I / / o.o.o.o.o.o.o.o.o.o./ / H H J H g H g g g g g g g g s r 4 4 , 4 4 , - - s ",
"4 < r 4 4 4 < < 4 4 4 4 , r 4 , 4 4 r r 4 r r s s s s V s H V s H s s g s r r 4 4 4 4 4 4 4 4 4 4 4 4 4 , , - % , , , , , % s ",
"p 4 4 r g r p 4 g g s r s s s s s r r r r g r s g s H H H H H H H g H H g s r r s 4 r s p r s r p r p p r r 4 r 4 4 , 4 , , r ",
"g g H g g J g g H H J J g s H H J g H s H H H H J V H H J J J J J J ~ J J H H J J g H g H H J g H g H g g H g g g s s s s 4 r "
};
