/* XPM */
static char *no_txtures64[] = {
/* columns rows colors chars-per-pixel */
"64 64 42 1 ",
"  c #030606",
". c #050708",
"X c #060A0B",
"o c #090D0E",
"O c #0B0F10",
"+ c #0D1314",
"@ c #0F181A",
"# c #101617",
"$ c #101718",
"% c #131B1C",
"& c #161F20",
"* c #162122",
"= c #1A2325",
"- c #132728",
"; c #1C2629",
": c #162B2C",
"> c #1D292B",
", c #1C2F30",
"< c #163233",
"1 c #1B3234",
"2 c #193738",
"3 c #1B3B3C",
"4 c #212C2E",
"5 c #232E30",
"6 c #233234",
"7 c #283436",
"8 c #233739",
"9 c #2A3739",
"0 c #263A3B",
"q c #293C3D",
"w c #1E3F40",
"e c #1D4445",
"r c #1F4748",
"t c #1F4A4A",
"y c #254445",
"u c #284547",
"i c #294749",
"p c #214B4B",
"a c #2A494A",
"s c #275455",
"d c #285153",
"f c #295A5B",
/* pixels */
"OooO++++++++++++########$$$$$$$$%%%%%%##%$#########$$#########+#",
"X  .X.    X.XXXXXXX.XXXooXOOO+++#O+#+OOoooXXX.XoXoooooooX.XX  Xo",
"oXOoXooXoOoOOOO+OO#O++#$+%&==;;==&4;4=&%%$%%#%#%%##%%######++ooo",
"O.oOOOoO#$$%%$%%##%$&&&&=;===>==;;=;=&4=%%=&%%%%%%%%%%%$###o#+o#",
"O.oO+O+$%%%&&=&&%%&=====;;;&4;=;;======&%4&&&%%&%%%%&%%%$#$##oo#",
"+oo+O+$$$%%%%%%%%&4459979999q9qqqqq077,&4===&;4;=4=4444;4%#$#oo#",
"O.OoO+#$$%%%&%&%%&&=;;444444555555545>,>=;;%4=&&%&&=%%&%$%%O##o$",
"+.++++#$%%&%&&&=&&&&=;=;4;;44>>>55>>>&>;;;&44&-:;>:::;--%$$##$o$",
"+X++++$$%%%&=%&&&&&=;=;;;4;4444455>>>&;;;&44=3syyiaaiyy04%###Oo#",
"+XOO+#$$%%&&&4==&&&=;;;;;;444455544>4&;;&;4&wd,;;;;;;===%%%$##O$",
"#XO+O##%%%%&%===&&===;;;4;;4444554444&;;%;&ws6>;;;;;;;=%=%%$##O$",
"#o++++#%%%%======&==;;;44444445554554&4;&=;f8>>>;;;;;===%%%$##O$",
"+X+++##$%%&==&4%=&==;;;4;444545555444&;=&;;f654;;;>;==;=&%%###O$",
"#X+OO#$%%%&&4==4&&==&;;;4445545554444&4;&=:f6,,>>>>>====&%%%$#O$",
"+oO++#$%%%&4&4===&==;;;44455444455444&4;&;;f1>>>>>;>&4&4=%%$##O%",
"+o+O+#%%%%&==&4=&%===;;=;4444444444==&;;&=:f,>4>>;>;44&&&=%###O%",
"#o+O+#$$%&&==;==&&4444555755997799766=>;&=-f1>;4;>;;;===&%$%#++$",
"#o+O+#$$%&&;=;;=&&&=&444>;4444;445;;;&>>&=;f1;;;;;;;===&%%&%#++$",
"#o+++#$$%&&=;;==&&;&4&;4>>>>;>4464>>;=>;&=-s>;;;;;;;===%%&%$#+O$",
"#oO+++$%%&&====&&&&;&;4&>>>44444445>;&;;=;=3>;;;;;;:==*%&%$$#++$",
"#o+++##$%&&====&&&&44;;4>>>>>4444444;*>;&=4&;;;;;=;==*%%%%%$#+O$",
"#oOOO#$$%%%&=&=&&&&&&4;;>>;>>>444;4;;*>;&=;=;;;;=;=&=%%#%$%$#+O$",
"#X+++#$$%%&&====&&&&;&;;44>;>>54>4;;;&>;&=;=;;;;;===*=%%%$$$%$O$",
"#oOO+##$%%&&&&&&&%&&&;;&&>>>>>&4>>>;;=;=&=;&;;=;;===%%%%%$$%$#O$",
"#oO+O###%%%&&&&&&%%&====44;;44&4>>;;=&;;&=;&4=;;;==&%&%%$$%$##O#",
"#XOO+##@@%%&&&&&&%&&%====;4;;44;>;;;=&;;&===;;;;;==&&%%@$$###+O#",
"$o+OO###$%&%&&&&%%%&&==;;;=;;;4;>;;==;==%=;&;;;;==&&*&@@$####+O$",
"#XO++###$@%&&&&%%%%&=&===;;;;;;;;;==;>==%==&;;;=====&-3*$#####O$",
"+o+OO+##%%&&&&&&%%&&&&===;;;;;;;;;=;4==&;=&&=;=;==&&&t3&###++OO#",
"#o+OO####%@&&&&&$$%&&&&&&=;;;=;;;=;;===;=&&;=======-p3&$#+##+++$",
"#oOO+&=;:,,,111,4$%%&&&===;;=;;==;4===;=&=;=======-p3&%%+##+++O$",
"#oO++$$%%%&&&&&&%=$%&&&&&&&=&==&;;===;=&&;=&&====-t0&%%+#%##++O$",
"+OOO+@+%$%%%%%%&%&;&==;====;===&;;;&4=&&=&&&==;==p3=%%##%@#+++O#",
"+OOOO+++$$%%%&%%&&&====&=====;====&=&%&=&&&&*==-t3=%%##%####+O+#",
"$OOO++#%%$%@%%%&%&&&&&%&&&*&=====%&&&%&&%&&&*=-t3*%%@@%####+$+O#",
"+XOO+++$$$%%%&&%&%%&&%&%%&=*&**=&&%&$&&$%%&&**p3*%%@@*#+##+%%++#",
"$OOOO+#$%%%%%&&&%&%%&&&&&&&&&**&&&$&$%%%%%&&*p2&%%%@&$####%$#+o#",
"+OOO++#$##%%%&&&%%%%%&&%&&=&&&&&&%%%$%$&&&&-p2=&%@@&%####%%##+O#",
"+OOOO+#####%%%&&%%&%&%&&&&&&&%%&&$&&$%%&&&-t2&%%@@&$####%$#+#+O#",
"+XOO+++#$#%%%%%&%%%%&%&&&&&&&&&&&&$&$%%&&&e<&%%$@&####+%$###++O#",
"+OO+O++$$$%%%%%%%%%&&&%&&&&&&&%&&%$&$&&&%32&%%%@&#####%#$####+O#",
"+X+OO++#$$%%%$%&%%%%%&&%%&&%&&&&&%$&%$$&%w:&%%@&@####&##$###++O#",
"+XOO++@##$%@%%%$%%%&&%%%&&*%%&%&&&$&$&&&%e:&%%$%@#######$###++O#",
"+OOOO+@+#@@%$%%%%%%%%%%%&&%&&&&%%&$$$&$&%w:&%&$$###%##@####++OO#",
"+XOOO+++@+@%%%@%%%%%%%%%%&%%%%%%&$$&$$&$%:t-%@$$########@+#++OO#",
"+XOOO+++@+@@@%&@%%%@%%%%&%*%%%%%&%$&$%$%%*<2%@#$##+#+######++OO#",
"+XOOO++@@@@%%%@@%&%&&%&&***%%%%%&$$%&%$$%%*&%@###++###@#@##++OO#",
"+XOXO+++@@@%%%************%%%%%@$%&$$&&$%%%%@@#@#++#####@###+OO#",
"+X+OO+#$%&<ertttppppppppp<**&&==&$%&#%%%%%%##%#$#++#@######+++++",
"+XOOO+O++%*-;,,>554,,,,,>=&%%%%%&&$%%$@%$#%####$+#+++@###+++++++",
"+XXOOO++#+%%%%%%%%%%%&%%%%%%%$%%$%%$%$#%%+@#####@++++##+##++++O+",
"+XOOOO++#@+%@%%%$%$%%$%##%%%%%$%%$%%##%####+##+#++++@++++++++OO@",
"OXXOOO++@#@@@#$$%#$$$#%$#%%#%$@$$%#%%+###+##+#+#+@@@+++++#++OOO+",
"+XOOO++++@++#%#$###$######%@$$%%$%##%+##++#+#++#++@@#+++OO+OOOO+",
"OXOOOO+++++@+%#+##########@#%$%#%$###+#+++#++#++++@+@@##@@##++o+",
"OXOXOOO++++++++%#########@#@#####$$$#+++++#++#+#++++++++++++ooo+",
"OXoOoo+O++++++++##+###############$##+++O++++#O+++++O+O++++oOoo+",
"OXOOOoOO+++++++@+++++++########+##+#+++++++O+++++++++++++OO++oo+",
"OXooOOOOO++O+++O+#+###$##$%%%%%%%%$#+++++O++++++oOOOOOoOo+++Ooo+",
"OXXooOOOO++++++O+++++###$$$$$$%#####++++OO+++++++++++++++++oOoo+",
"OXXXXoooOO+OOOOO+O+++++####+###+###++OO++O++++++++++++++O+OOooo+",
"OXOXooooOoOOOOOOOOOOO+O++#+++##++++#+#OOOOoOOO+OOOOOOoooOOOoOoo+",
"OXOOOOoOOOOOOOOO+OO++++OO++++++++++++++O++O++O+OO+O+++++++++OOO+",
"++OO+O+++++##+##++++++########################+#++#+++++++++++++"
};
