/* XPM */
static char *so_txtures64[] = {
/* columns rows colors chars-per-pixel */
"64 64 58 1 ",
"  c #060A0B",
". c #090D0E",
"X c #0B0F10",
"o c #0D1314",
"O c #0E1B1C",
"+ c #101617",
"@ c #111718",
"# c #131B1B",
"$ c #181E1F",
"% c #0E1F20",
"& c #161F20",
"* c #181F20",
"= c #0F2324",
"- c #152223",
"; c #1A2324",
": c #132728",
"> c #1C2728",
", c #152A2C",
"< c #1D2A2B",
"1 c #142E30",
"2 c #153536",
"3 c #1B3232",
"4 c #163738",
"5 c #173A3C",
"6 c #1A3C3D",
"7 c #212C2E",
"8 c #222F30",
"9 c #243133",
"0 c #293436",
"q c #213738",
"w c #2A3738",
"e c #253C3D",
"r c #2B3839",
"t c #193F40",
"y c #273E40",
"u c #283F40",
"i c #1C4344",
"p c #1D4748",
"a c #1F484A",
"s c #224445",
"d c #294445",
"f c #244B4C",
"g c #2C4B4D",
"h c #274F50",
"j c #2D4F50",
"k c #215051",
"l c #295454",
"z c #265658",
"x c #275B5D",
"c c #285D5E",
"v c #295F61",
"b c #2B6162",
"n c #326D6E",
"m c #336F70",
"M c #347374",
"N c #367778",
"B c #377979",
"V c #387A7A",
/* pixels */
"@+@##@###$#$$$$$&***;;;$;;;;;>;*;;**;$;*;**$$$$$$$$#$$#####+++++",
"o   .  .......X.X.oXXX.o+oX+oooo+XoXX+.+Xoo..XoX....X.......    ",
"+      .. ......Xooooooo++++o@@@+++oo+++oooo+oX....oX... .     .",
"+ ...ooo++++++###&&&*;&-$;;;>;>>>>;;;>;;;;;;;$$#$###++ooXX...X X",
"X.XX+X&6yssfgffffhghhhhhllllllllzlzllllllhlhhffffffsss666-XX. .X",
"+.X+#$;>33qq9q39qyyyqeywddgggjggjjjggggdueeqeuuwq93q3<<<>$#oXXXo",
"+..X++++#$$$$$;>>;;>>>>777778777090998877;;>>;>>;$$$$#@@@+ooX.Xo",
"+ .XX++++@@@$$$$*&&#**>*>;>>>7>7><><>>>;;*$#+@$$$@###++oXooXX.Xo",
"@XXo+@#@$$;;7777778$77888000w00wwwwww008877*@7777>>>;&#+$#@+oXX+",
"@XXoo+@$$@$$$$$$>*7;**>7788888877780877>7;;*>>;*$$$&$#+@$o+ooXXo",
"@XXo@##$$@&;;;$;>>7>****779908>;$790877-##*;;>;;;;**$@+$@@@oooo@",
"#oo+@$$$&#$;;;$;*7*;7$Xo+77998O##@90087oOX$>;>>>;;;;###&$@$@+oX+",
"#Xo+#$&-$$;;;;;;>>>;;>:4#77998$t5&80997#i:;;;>>>>;;**&#*$###+Xo@",
"#X++$$-;;$;;;;>;7>>>><yb*77989-xz:99987:m5>;>>>>;;>;;*#*$&##+oX#",
"#oX#$&;$$$;>>;;><<<>><sn;78899:vx,99887,Nt>>;>>>>;;;-*#**&&$+oo#",
"#XX#$;;;;$;;;>;;<>>;><fn:78988:vc,988871Nt<>>>>>>;;;;*#;*###@oo#",
"#oo+$$*;-#;>;;;><>>>>>fm,79909:vc,088871Bt<>;>>>;;;;-&##&####oo#",
"#X.++##$*#;>;>>;<>>>>7fm:99000:vc,q87881Bt<>;;>>;;;;*&#$$##++XX#",
"#Xo+#$$*;*;;;>;;>>>;>7km,89999:vc,083881Bt>;;<>>;;;;*&#;&#&#+oo#",
"#oo+@#$$**;;;;;><>>;><fm:97998-vc,8878<1Bt<;;>>>;;;;*#$*###@+oo#",
"#Xo@##$$;#;;;>;><;>;><km,77998:bc,883771Bt:;;;>>;;;;;*#$####ooo#",
"#oXo##$$;#*;;;;;>><;;<am,<778<:bc,877771Bt<;;>>;;;;;-*#$##+++Xo#",
"#Xoo@$$&-#*;;;;;>;>;><fm,7<<<<=bc,87<<<1Nt>;*;>;;;;;-*#&###++oo#",
"$Xoo@@$$*#**;;;;;;>;-<am,<<73<=bx:773<<1N6>;;;;;;;;;*&#&##@#+oX#",
"@Xo+####$#**;;;;;>>;;>fn:<<<<<-bx:<<<<<1N6:-;;;;;;;;&$@&###@+oo#",
"$Xo+###$###*;;;-;;>$->am:<>><<=bx,37<<<1N6>&&;;;;;;;&$#&##@#+oo#",
"#ooo+#$####*;;;;;;;;;>an:<>><<=bx:<<<<<,N5;;&;;;&;;-&#####@@ooo#",
"#ooo##$$###**;;*;;;$->an:<>;>;=bx:<<<<:,N6>;;;-;;&;-#$@$#@@@ooo@",
"#Xo+@$$#####**-;;;;$-;an=;;;;;=vx:<<<<;:M6;-&-;;-&;&$#@#@@@@+oo@",
"$XX+@#######*#*;;;;$-;an-;;;>;-bx-<;;;;:M5-&&;&;;&&&&#@#@@@+ooo#",
"#Xo+###@#@####**;;;$&;pn=;;-;;%vx:,;;;-:M5&&&;;-&&&&&#@#@@@oooo@",
"#..+++++@+##***;;$;$&;ib=-&;;-%vx%;;;--=m5&$$&;&&&&&&#@@@@ooooo@",
"#XXX+++#@+###;***&*&&*1f%&-&;;%pi%;;&&;%k,%##&;&&&&$##@+@++oooX@",
"#oXoX++++@@$$###&##@&;::;;*;;;;,,;;--&&-;-&#+#########@++++ooXo@",
"#..o+#+o####$#*;**#X#&*;*&-*&;;>>--&&*$;;;&@X&&;*$&&&###@@@oXXX@",
"#..o+###$#&&&&*$>;>#@#@##&&&-&&&*&&&$#$@#@#+#&&;&&**&&###@@@oXo@",
"#o.Xo+++####@@$###*####&;;;;;>>><;>;&;&&&&####@$#@###@++oooooXX@",
"#..oX+++###@@$####*###&&*;;;;>>;;<;;;-&&&#############++oooooXX@",
"#X.Xo++#+#++@#@#@@#+@##&&&&&;;:&&;-&#$$@#+++o#@#@@#@+#++ooooXXX@",
"#.o+###**;;;>>7<77>*o#&&&&&&-&&&--;&#@$$###o#;<;&;><;;-*&##@ooX@",
"#.oooo++###@@#$####&#o###&&&&#&&&*##@@##@@o@O@##++###@@#+ooXXXX@",
"#. .+>,,,3331-oo#@X@#&**;->>>><<<>><<;;;&*#@+o@@++=3,3,,,::OX.X@",
"#XX+;6ssfffff3&##*#Xo@#&&&&&&&-&-&&&&&-&##@oX@&##-3ssfsssiq,+oo+",
"#XXo##&*<;<;;$@@@@#+++@+&##&&&&&#*#######@@+@#@###-;;*--&##+oXX+",
"#XXXo++######@#++@#oo+@####&#&--*##&######+++OO@@@O##@O#@++oooX+",
"#XXXo+++###O+O++#@++++@O###&&$$#&####O####++++@#@+@@@O@@++ooooX+",
"#X.oX+++@+@@++###O#oo+@###&##--$&####@####@++O+@+++@@@oO+++oooo+",
"#X.o+++@#@@+#@@##@@oo+++#O&&#&$-#&##@@@##@@+o++@#++#@++++++oooX@",
"#XXoo+++O@+@#@#@@@#oo+++O###%&$####@@@@O+++++@@@+@+O++++++oooXX+",
"$XXoo+++#@+#@@###@ooooo++############@@+++o+o@@@@++@O++++++oooo+",
"#XXooo+#@#+#+#O##@oo####$$&>;;;;;&&&&$#*@++@++@@+++++++O++oooo.+",
"#XXXoo+++++++@+#@@oooo+++O&#&####O##@#O@+++@+oo@++++++o+++oooX.+",
"#X.Xooo+o+@@+@@@@@oooo+Xo+@#@#@@@+++o+ooXooooo+@+++++++ooooooXoo",
"#X.Xoo+oooOo++@+@o+oooo+++@@#+#@@@++Oo@o+oooo+o++o++++o+oooo...+",
"#X.XXoooo+o@o@+ooooXoo+o+++Oo#+@@o@+oo+Oooooo+o++o++++ooooo.X.X+",
"#.XoXooooo@oooooooo.oo++oooOO+@+O+++++ooooooX+oooooooooooooXoX.o",
"#. .XXooo+OoXo+++++++++@@#@####@@##@@+@++++oo+++oooo+X+XooXXX..o",
"+...XXXoo+@o+oo++++++++++@@#######O@###++o+o#++#++++++++oXXXX..o",
"+. ...XXXooXXoXo+ooo..++oo+o++++++oooooooooXooooooooXoXX..... .o",
"+. X  . XXXXoooXoXXX +..XoXXoooooXooooXoooo .oXXoXXXXXX........o",
"#X XoXooo+++++@@++@o+#+++####$$#####O##@#++#o+@++oo++XoooXX....o",
"+  X...oXoXoooo+oo++ooooo+oo++++++o+oooooooooooooooooXXX..... .X",
"+X.X.XX.ooooooo++o+o++++@o+++++++++++++oooooXooooXXoXXXXXX......",
"+Xoooo++++o+@+++++++++@@#@$######@##@#@###o+ooo+++o+OoooooooXXX."
};
