/* XPM */
static char *we_txtures64[] = {
/* columns rows colors chars-per-pixel */
"64 64 22 1 ",
"  c #070A0A",
". c #090E0E",
"X c #0B0F10",
"o c #0D1314",
"O c #101617",
"+ c #111718",
"@ c #131B1C",
"# c #161F20",
"$ c #181F20",
"% c #172022",
"& c #1A2325",
"* c #1C2728",
"= c #1E292B",
"- c #212C2D",
"; c #242F31",
": c #263234",
"> c #293436",
", c #233738",
"< c #2A3738",
"1 c #24393A",
"2 c #2C3A3C",
"3 c #2D3E40",
/* pixels */
"ooooOOO++++++@@+@@@@@$$$$$$$$$$$$*$$$$$$$$$$$O$OOOOOOO$OOOOOOooO",
"o  ......OoXOOOXXoooOOO@$@$$$O$$$$$O$$$OOOOOOXoXXOOOoXXXXoX....o",
". .oOO+@@@@--$-O@@@@$$-$*;;;>>;>>-->---$$$$$$OOOO$$$$$O$OOOOX..X",
"o ooOO++@@@$@$@-&$--;;;>>>>>>>>>>>>>>>>>----$-$-$$$$$O$OOOOOOo.O",
"o .OOXO+@@$$$$$---&-$--->>;>>>>>>>>-----*-$--**$$$$$$$$OOOoOoo.O",
"o.oOO++@@@@@$$$$@-&--&--->>>>>>>>>>>>----*$*$*$$$$$$$$O$O$OXoX.O",
"o ..++++@+@@$@$$$$-@@@&--->-;;>>>>->>---**$*$*$*$$$$$$$O@OOOXX.O",
"o OOO+++@@$&&$$-$-@-@-&&-;>>>>>>>>>>>;----$-*$$$---$$$$O@@OOOOXO",
"O XXOO+@$$$-$*$*&&=&&&&-;;>>>>22><<>>-;---$-*****-***$$$$OOoOo.O",
"O Oo+@@@$&$$-$****=*&&--;>>>><22><<>>>>---$-***-***-**$$$$OOOOoO",
"o oO+#@#&&--**&**---&&--;>>><222<<<<>>>;;-$>*--*-*****$$@OOOOO.@",
"O Xo@@@#&&-&***-==-&&&--;>><<2222<<<>>>>;;$---*---*--$*$$@@OOOoO",
"O OO@#@#&&=====*-=--&*-;;;><223222<<<<;;--*-------*-*$*$$$OOOO.O",
"+XXo@@@#&&==---=*&=--&-;;>><2333222<<>>>;-$-**--*****&$$O$OOOOX@",
"@ OO@###&&*=;--==*--&*-;:;>>2233222<<>>;--$$**$$*$&*$$$$$OOoOOoO",
"OXXO+@##&&===--=*-*-&&-;:;>><322222<>>>>--$-**----*-**$$$O$OOOX@",
"+XOo+@@#%&*==-==-==&&&-:::::2222<222:<:;-=&*&&*=-**-&&&$@@+OOOX+",
"+ oo+#+o#%**======**&&-;:::<222<<<<::::;-=&***==----**&%@@OOOOO+",
"+ OXX@@@@&=;,,:;,:-=@%-;:::<<222<<<<::,;-=&***=----**&&%%@+OOOX+",
"+XOOO###=-;,1333311,:+*;:::<<<2<2:<2::;;=&&=&=------*-&&%@@OOOO+",
"OXoO@@@@##&&&&**=*&==-#-;::><>2<<<;<::;;&*&**==-----$-&&$$++OOOO",
"+Xo++@@####&&***======%=;:::><<>;<;<:;;-*&&**==-&----@&%$@+++OO+",
"+Xo+O@@###&&***======-%--::::<<<><<<,;;=&&&**===--$---@$@@@++OX+",
"+XO++@@###%&&&**==--=&%=-;::>>><<:<;,;==&&%&*===-----@$$$@+O++O+",
"+Xo++@@##$&&&**==--==*%=-:;::>:<:<:::;==%&%*&=====***&&%@@@O++O+",
"OXO++@@@#@#&&&**===-=-%----::::>>><::;=*%%#&&*==****&&#$@@@+++O+",
"OXo+++@#@$%&&***===-=&%==--::::,:<::;-*&%%@&&*******&&$@$@@++OX+",
"+XO++++@$@#&&&&=======%*=--::;::::;;-=*&#%#&&******&&%##@@+++OO+",
"OXo+o++@@$%&&&&*======%*===:-;;::,;-=**&%#@%&*&***&&%%#@@++O++O+",
"oXoOO+@@@@%&&&&&**=*=&%%*=-;---::;--=**&@#@&&&&&&&*&&###@@@O++O+",
"+.oO++@@@@&&&&%&&&**&*@*%*----::;----**#@#@%%&&&&&%&&#$$@@++OOo+",
"+XoOo+@@@$%%%%%&&*%***@%%*=----::--****&#@@#%%&&&&%&&$$@@@+O+OO+",
"+Xoo+@@@@@#%#%%%&&&&&###&*====;;---=*=&&@@@@%%%&%%%%%@@@@@@+++o+",
"+Xo+o+++@@@%@@%%&&&&&%##&&&====-----=&&&%++%#%%%%%%%%@@@@++o++o@",
"+Xooo+++@@#@@@%%########%&&***=;---==&&#%%o%@%%%%%%%@@@@+@+o++o+",
"+.ooo++++@@%@@@%#&######&%&&&*==-*=*&&&&@%@@@%%%%%&%%%@@+++++oo+",
"o.XX@o++@@@@@@%%#####+##%%&&&*=====*&&&#%@+@%***,=*===%@+++o+oo+",
"+.Xo+o++@+@#@%%@####+###%%&&&*=*==&&&&&&%@@,,1111111,,=%+++o++o+",
"+ oooo+++@@#@@@@+##@+#+#%%&&*&**&=&&&&&&%++%@%%%%%%@@@+@+++o+oX+",
"oX+ooo++@@@#%@@%###@++###%%&&&&&&&&&&%&%%@+@@@#%%@@%%@@+++oo++o+",
"+Xooooo@+@@@@@@@#@@@+@#@@##&&&&&&&&&#####@O@@@%%###@#++++o+oo+X+",
"o.oooo+++@@@@@@@#@@@+@@@@##&&&&&&&&%####@+O@@#@%#%@#@#++o+ooooo+",
"+.ooooo++++@@@@%@@@@+@@@@##%&&&&%%%%#####+O@@@@%@@@@@+++o+ooooX+",
"oXoXoo++++@@@@@@@@@@+++@@#%%###&%%%%##@@++O+@@@@@##@@@+++o+oooX+",
"o.ooooo+++@@@#@@#@@++++@@#%%#%%%%%##@@@##++@+@@@@@@@+++++oooooo+",
"o.oXooo+++@+@++#@#+@+++@+####%%%%%#@##@@++o@@@@@@@@@@@++ooooooo+",
"oXoXoo+++++@+@+@+++@o++@@#@%##%%%%%%@#@@++o@@@@@@@@@@o++ooooooX+",
"o.XXoo++++++@++@@++@+o+@+@#%@%%#%%@@#@@@@+o++@+@@@@@++oooooXooX+",
"o.XXoo++++@+@@+@++@+OO@+@@####@%#@#@@%@@++o+++++@@@+++o+ooooooX+",
"o.XXXooo+o+++++++++Ooo++@@@@#%#@##@@@@@+++o+++@++++@++oooooXXoXo",
"o X.XoXoooo++oo+OO+OXo+O+#@@@@@@@+@+++++ooXo@++++++++oooooXXXXXo",
"o XXo+oo+o+++@@#############&%&&&&%#%%@%##+o++++o+o++ooooXooXoX+",
"o.XXXXoXoooooo++++O++OOOo++++#@@@@@@++++++@oo+++o+++oooooXooXoXo",
"o XXXXXoooo+o+oo+Oo+OOOOo+++++@@@+@++++++oo+Xoooooo++ooooXoXXXX+",
"o X.XoXooooo+o+o+OO+oOOOOOO+@@+@@++++++++oo++XooooooooooXXoXXXXo",
"o XXXoXoooooooo+ooOooOOOoOO++@@@+++++++ooooo+o+o+o+o++o+oXoXXXX+",
"o  XXooXooooo+ooOoOOOoOXo+o+@+++++++++oooooooo+ooooooooooXXXXXXo",
"o oXXXXoooooooooXOXXXOOOooo++@+O+++ooooooXooooooXoXoooooXXoXoX.+",
"o XoXXXXooooooooXooXoXXXooooo+OO+ooooooooooXoXXXXXXoXoXXXXX+oX.o",
"X XXo+++@++++@@+O+@+@@@@+#+@@###@%#@@@@@@@@++++X+++++++++o+oXX.+",
"X  .XXXooooooooXXXoXXoXXoooXoOoOo++ooooooXoooXXXooooooXoXoXXX..o",
"o  .XXXXXXXXooXoOoOO+O+O++++@++@@@++@++++++oo+ooXooXXXXoXXX.X..+",
"X         . .X.XXXXXXXXXXXXXXXXXXoXooXXoXXXXXXX... . ..........o",
"X.Xoo+ooo+o+++++@++@@@@@############%@###@@@@@@@+@++@o@o@+o@++oo"
};
